# xmcd CD database file
#
# Track frame offsets:
#	187
#	21412
#	41775
#
# Disc length: 947 seconds
#
# Revision: 2
# Processed by: cddbd v1.5.1PL0 Copyright (c) Steve Scherf et al.
# Submitted via: CDex 1.51
#
DISCID=2203b103
DTITLE=河村隆一 - Love is...
DYEAR=1997
DGENRE=JPop
TTITLE0=Love is...
TTITLE1=xyZ
TTITLE2=Love is...(guitar version)
EXTD=YEAR: 1997
EXTT0=
EXTT1=
EXTT2=
PLAYORDER=
